
<svg xmlns="http://www.w3.org/2000/svg" width="32" height="32" viewBox="0 0 32 32" fill="currentColor">
  <path d="M16 2C10.5 2 9 4.5 9 7v3h7v1H8c-2.5 0-4.5 2-4.5 4.5v7C3.5 25 5.5 27 8 27h2v-3c0-2.5 2-4.5 4.5-4.5h7c2.5 0 4.5-2 4.5-4.5V7c0-2.5-1.5-5-7-5zm-3 3c.8 0 1.5.7 1.5 1.5S13.8 8 13 8s-1.5-.7-1.5-1.5S12.2 5 13 5z"/>
  <path d="M16 30c5.5 0 7-2.5 7-5v-3h-7v-1h8c2.5 0 4.5-2 4.5-4.5v-7C28.5 7 26.5 5 24 5h-2v3c0 2.5-2 4.5-4.5 4.5h-7C8 12.5 6 14.5 6 17v8c0 2.5 1.5 5 7 5zm3-3c-.8 0-1.5-.7-1.5-1.5S18.2 24 19 24s1.5.7 1.5 1.5S19.8 27 19 27z"/>
</svg>
